<svg xmlns="http://www.w3.org/2000/svg" viewBox="0 0 512.15 512.25">
  <g data-name="Слой 2">
    <g data-name="Layer 1">
      <path d="M373.83.13h-235.4C62.22.13.13 62.22.13 138.43v235.3c0 76.29 62.09 138.4 138.3 138.4h235.3C450 512.13 512 450 512 373.83v-235.4C512.13 62.22 450 .13 373.83.13zm96.9 373.7a97.09 97.09 0 0 1-97 97h-235.3a97.09 97.09 0 0 1-97-97v-235.4a97.09 97.09 0 0 1 97-97h235.3a97.09 97.09 0 0 1 97 97z" stroke="#ffffff" stroke-miterlimit="10" stroke-width=".25"/>
      <path d="M370.73 238.23a113.34 113.34 0 0 0-32.4-64.3A114.66 114.66 0 0 0 274 141.52a112 112 0 0 0-33.7 0 114.82 114.82 0 0 0 16.6 228.4 110.62 110.62 0 0 0 17.1-1.29 114.76 114.76 0 0 0 96.7-130.4zm-102.81 89.5a73.45 73.45 0 0 1-21.5-145.31 73.3 73.3 0 0 1 21.6 0 73.44 73.44 0 0 1-.1 145.31zM400.13 112.13a20.71 20.71 0 0 0-35.31 14.59 20.4 20.4 0 0 0 6.1 14.6 20.71 20.71 0 0 0 35.31-14.6 20.43 20.43 0 0 0-6.1-14.59z"/>
    </g>
  </g>
</svg>
