<svg id="Слой_1" data-name="Слой 1" xmlns="http://www.w3.org/2000/svg" viewBox="0 0 78.01 22.36"><title>logo-mobile-footer1</title><g style="isolation:isolate"><path d="M15,3.56a.94.94,0,0,0,.55.25c.39,0,.61-.52.72-1.67H17c-.09,1.44-.11,3.36-.11,6.78h-.66c-.3-2.57-.66-3.92-2.11-5.07a5.08,5.08,0,0,0-3.54-1.38C6.52,2.47,5,7.16,5,12.11s1.68,9.57,5.68,9.57a5,5,0,0,0,3.49-1.36c1.45-1.12,1.79-2.68,2.05-5.41h.66c0,3.55,0,5.56.11,7.05h-.65c-.11-1.14-.28-1.65-.68-1.65a1.17,1.17,0,0,0-.59.23,8.12,8.12,0,0,1-5.17,1.82C3.94,22.36,0,18.63,0,12.22S4.08,1.74,9.9,1.74A7.79,7.79,0,0,1,15,3.56Z"/><path d="M30,8.35c.82.85,1,2,1,3.92v7.62c0,.9.15,1.24.6,1.24a1.68,1.68,0,0,0,1-.48l.29.48a4.71,4.71,0,0,1-3.2,1c-2.05,0-2.68-1.07-2.69-2.27a4.74,4.74,0,0,1-4.13,2.27c-2.09,0-3.54-1.15-3.54-3.19s1.34-3.16,3.94-4.11c2.06-.78,3.67-1.32,3.67-2.52V10.15c0-1.46-.63-2.5-2.28-2.5a3,3,0,0,0-2,.68,2.24,2.24,0,0,1,1.66,2.21,2.05,2.05,0,0,1-2.29,2,2,2,0,0,1-2-2.16,2.75,2.75,0,0,1,1.57-2.33,8.57,8.57,0,0,1,4.26-1C27.7,7.09,29.1,7.42,30,8.35Zm-3,5.14a5.41,5.41,0,0,1-1.73,1.38,3.89,3.89,0,0,0-1.9,3.32c0,1.55.75,2.18,1.75,2.18A2.23,2.23,0,0,0,27,19.23Z"/><path d="M47.92,19.91c.44.69.81,1.25,1.46,1.47V22c-.56,0-1.83-.1-2.93-.1-1.39,0-2.93.08-3.63.1v-.58c.55,0,.85-.21.85-.52a.9.9,0,0,0-.14-.44l-2.77-5a1.49,1.49,0,0,0-1.38-.87v4.82c0,1.56.46,2,1.68,2V22c-.68,0-2.22-.1-3.62-.1s-3.14.08-3.87.1v-.58c1.3,0,1.79-.45,1.79-2v-16c0-1.68-.44-2.47-1.79-2.47V.35c.58.05,1.17.08,1.72.08A18.36,18.36,0,0,0,39.38.05V14a2.43,2.43,0,0,0,1.69-.69l2.12-2.08a2.54,2.54,0,0,0,.94-1.7c0-.87-.92-1.42-2.17-1.49V7.47c1,.06,2.42.1,3.28.1,1.07,0,2.63,0,3.28-.1V8A7.43,7.43,0,0,0,45,10.21l-1.8,1.87Z"/><path d="M61.38,17.81l.5.19a5.89,5.89,0,0,1-5.6,4.36c-3.78,0-6.46-2.38-6.46-7.49s2.87-7.78,6.85-7.78c3.27,0,5.27,1.83,5.27,6.22H54.1c0,.41-.05.88-.05,1.33,0,3.89,1.87,5.41,3.65,5.41A4.12,4.12,0,0,0,61.38,17.81Zm-7.36-5h4.39c.05-2.74-.53-5.09-1.9-5.09S54.25,9.15,54,12.78Z"/><path d="M72.45,8a1,1,0,0,0,.5.19c.33,0,.57-.33.66-1h.6c-.09,1.06-.12,2.43-.12,4.92H73.5c-.29-2.07-1.2-4.33-3.59-4.33A1.74,1.74,0,0,0,68,9.51c0,1.68,1.72,2.61,3.44,3.9S74.8,16,74.8,18.21c0,2.55-2.42,4.15-5.3,4.15a5.39,5.39,0,0,1-2.63-.59,8.09,8.09,0,0,0-1.3-.58.27.27,0,0,0-.12,0c-.32,0-.55.39-.68,1h-.59c.08-1.21.11-2.77.11-5.6h.6c.34,3,1.42,5.16,3.77,5.16a1.85,1.85,0,0,0,2-2c0-1.64-1.22-2.55-2.83-3.81-1.83-1.44-3.51-2.71-3.51-5,0-2.49,2.27-3.86,4.81-3.86A6.59,6.59,0,0,1,72.45,8Z"/></g></svg>