<svg id="Слой_1" data-name="Слой 1" xmlns="http://www.w3.org/2000/svg" viewBox="0 0 53.44 15.98"><title>logo-mobile-01</title><g style="isolation:isolate"><path d="M10.75,2.51a.7.7,0,0,0,.39.18c.29,0,.44-.38.52-1.2h.46c-.06,1-.08,2.41-.08,4.85h-.47c-.21-1.84-.47-2.8-1.5-3.63a3.65,3.65,0,0,0-2.53-1c-2.87,0-4,3.35-4,6.88s1.21,6.84,4.07,6.84a3.58,3.58,0,0,0,2.49-1c1-.8,1.28-1.91,1.46-3.86H12c0,2.53,0,4,.08,5h-.46c-.08-.82-.2-1.18-.49-1.18a.82.82,0,0,0-.42.17,5.79,5.79,0,0,1-3.69,1.3C2.82,15.94,0,13.27,0,8.69S2.92,1.21,7.08,1.21A5.56,5.56,0,0,1,10.75,2.51Z"/><path d="M21.44,5.93c.58.6.71,1.4.71,2.8v5.44c0,.64.11.89.43.89a1.24,1.24,0,0,0,.73-.34l.21.34a3.35,3.35,0,0,1-2.29.73c-1.46,0-1.91-.76-1.92-1.62a3.4,3.4,0,0,1-2.95,1.62,2.24,2.24,0,0,1-2.53-2.27c0-1.45,1-2.26,2.81-2.94,1.48-.56,2.63-.94,2.63-1.8V7.22c0-1-.45-1.79-1.63-1.79a2.13,2.13,0,0,0-1.43.49,1.58,1.58,0,0,1,1.18,1.57,1.47,1.47,0,0,1-1.63,1.44,1.42,1.42,0,0,1-1.41-1.55,2,2,0,0,1,1.12-1.67,6.1,6.1,0,0,1,3-.68A3.9,3.9,0,0,1,21.44,5.93ZM19.27,9.6a3.94,3.94,0,0,1-1.24,1A2.76,2.76,0,0,0,16.67,13c0,1.1.54,1.55,1.25,1.55a1.59,1.59,0,0,0,1.35-.81Z"/><path d="M34.24,14.19c.31.49.57.89,1,1v.42c-.4,0-1.31-.07-2.1-.07-1,0-2.09.05-2.58.07v-.42c.39,0,.6-.14.6-.37a.74.74,0,0,0-.1-.31l-2-3.57a1.06,1.06,0,0,0-1-.62V13.8c0,1.11.33,1.43,1.2,1.43v.42c-.49,0-1.59-.07-2.59-.07s-2.24.05-2.77.07v-.42c.93,0,1.28-.32,1.28-1.43V2.4C25.26,1.2,25,.63,24,.63V.21c.42,0,.84.06,1.24.06A12.67,12.67,0,0,0,28.14,0V10a1.8,1.8,0,0,0,1.21-.5L30.86,8a1.82,1.82,0,0,0,.67-1.21c0-.63-.66-1-1.55-1.07V5.3c.74,0,1.73.07,2.34.07.77,0,1.88,0,2.35-.07v.4a5.35,5.35,0,0,0-2.5,1.56L30.88,8.59Z"/><path d="M43.85,12.69l.36.13a4.21,4.21,0,0,1-4,3.12c-2.7,0-4.61-1.7-4.61-5.35S37.65,5,40.49,5c2.33,0,3.76,1.31,3.76,4.44h-5.6c0,.3,0,.63,0,.95,0,2.78,1.34,3.87,2.61,3.87A3,3,0,0,0,43.85,12.69Zm-5.26-3.6h3.14c0-1.95-.38-3.63-1.36-3.63S38.76,6.5,38.59,9.09Z"/><path d="M51.76,5.64a.69.69,0,0,0,.36.14c.23,0,.4-.23.47-.73H53c-.07.76-.09,1.74-.09,3.51h-.42c-.2-1.47-.86-3.09-2.57-3.09a1.25,1.25,0,0,0-1.36,1.29c0,1.2,1.24,1.86,2.47,2.78s2.39,1.85,2.39,3.43c0,1.82-1.73,3-3.79,3a4,4,0,0,1-1.88-.42,5.87,5.87,0,0,0-.92-.42l-.09,0c-.23,0-.39.28-.49.71h-.42c.06-.86.08-2,.08-4h.43c.24,2.16,1,3.68,2.69,3.68a1.32,1.32,0,0,0,1.41-1.43c0-1.17-.87-1.82-2-2.72-1.31-1-2.51-1.94-2.51-3.55C45.93,6,47.55,5,49.37,5A4.7,4.7,0,0,1,51.76,5.64Z"/></g></svg>